Coordinates
version=1
nRows=4
nColumns=63
inDegrees=yes

Units are S.I. units (second, meters, Newtons, ...)
If the header above contains a line with 'inDegrees', this indicates whether rotational values are in degrees (yes) or radians (no).

endheader
time	pelvis_tilt	pelvis_list	pelvis_rotation	pelvis_tx	pelvis_ty	pelvis_tz	hip_flexion_r	hip_adduction_r	hip_rotation_r	knee_angle_r	knee_angle_r_beta	ankle_angle_r	subtalar_angle_r	mtp_angle_r	hip_flexion_l	hip_adduction_l	hip_rotation_l	knee_angle_l	knee_angle_l_beta	ankle_angle_l	subtalar_angle_l	mtp_angle_l	L5_S1_Flex_Ext	L5_S1_Lat_Bending	L5_S1_axial_rotation	L4_L5_Flex_Ext	L4_L5_Lat_Bending	L4_L5_axial_rotation	L3_L4_Flex_Ext	L3_L4_Lat_Bending	L3_L4_axial_rotation	L2_L3_Flex_Ext	L2_L3_Lat_Bending	L2_L3_axial_rotation	L1_L2_Flex_Ext	L1_L2_Lat_Bending	L1_L2_axial_rotation	L1_T12_Flex_Ext	L1_T12_Lat_Bending	L1_T12_axial_rotation	Abs_r3	Abs_r2	Abs_r1	Abs_t1	Abs_t2	neck_flexion	neck_bending	neck_rotation	arm_flex_r	arm_add_r	arm_rot_r	elbow_flex_r	pro_sup_r	wrist_flex_r	wrist_dev_r	arm_flex_l	arm_add_l	arm_rot_l	elbow_flex_l	pro_sup_l	wrist_flex_l	wrist_dev_l
      8.80000000	      6.68769773	     -1.49177148	    173.71892032	      2.57504496	      0.88220583	      0.69108078	     16.93677301	     -5.86553768	    -15.06879959	     27.14009547	      0.47368403	     27.02812129	      4.57254366	      0.00000000	     11.12026543	      0.19479572	     -3.51178747	     18.51512105	      0.32314982	     18.71766727	    -16.29170696	      0.00000000	      0.00107274	     -0.15881188	     -0.54564536	      0.00199218	     -0.21121979	     -0.57974819	      0.00176240	     -0.38613520	     -0.57974819	      0.00122603	     -0.38613520	     -0.47743969	      0.00099614	     -0.32384918	     -0.44333685	      0.00061296	     -0.24599960	     -0.40923402	      0.00766246	     -1.79651170	     -3.03471578	      0.00000000	      0.00000000	     -0.00000000	      0.00000000	      0.00000000	     -7.09834674	     -1.23411543	    -18.70476167	     33.69957139	     49.95738038	      0.00000000	      5.00000014	    -14.61569247	     -5.00035480	      0.37855443	     27.57659588	     58.24803196	      0.00000000	      5.00000014
      8.83333333	      6.57142040	     -1.50128293	    173.68149173	      2.57452070	      0.88212713	      0.69033055	     16.46860401	     -5.74198439	    -14.97323176	     26.55549543	      0.46348083	     26.97378078	      4.42411494	      0.00000000	     10.04215891	      0.57613288	     -2.14598091	     16.69781890	      0.29143192	     17.43179369	    -17.76349649	      0.00000000	      0.00003171	     -0.17243749	     -0.55232835	      0.00005889	     -0.22934186	     -0.58684887	      0.00005210	     -0.41926450	     -0.58684887	      0.00003624	     -0.41926450	     -0.48328731	      0.00002945	     -0.35163452	     -0.44876678	      0.00001812	     -0.26710567	     -0.41424626	      0.00022650	     -1.95064733	     -3.07188458	      0.00000000	      0.00000000	     -0.00000000	      0.00000000	      0.00000000	     -7.00279316	     -1.06154541	    -18.87075017	     33.36867442	     49.89495516	      0.00000000	      5.00000014	    -14.66679197	     -5.10073077	      0.39526224	     27.43067683	     58.26182740	      0.00000000	      5.00000014
      8.86666667	      6.51096221	     -1.38018485	    173.78352922	      2.57420947	      0.88214171	      0.68968439	     16.02301544	     -5.49728083	    -14.91313695	     25.97213586	      0.45329928	     26.90372797	      4.32259498	      0.00000000	      9.30002872	      0.65688919	     -1.41386568	     15.40814040	      0.26892278	     16.63458274	    -18.13230088	      0.00000000	      0.00026938	     -0.17073749	     -0.56817684	      0.00050026	     -0.22708086	     -0.60368789	      0.00044256	     -0.41513113	     -0.60368789	      0.00030787	     -0.41513113	     -0.49715474	      0.00025014	     -0.34816789	     -0.46164368	      0.00015392	     -0.26447237	     -0.42613263	      0.00192412	     -1.93141662	     -3.16002913	      0.00000000	      0.00000000	     -0.00000000	      0.00000000	      0.00000000	     -6.68935764	     -1.25281015	    -18.17252142	     32.51949682	     50.00537258	      0.00000000	      5.00000014	    -14.68247574	     -5.19314526	      0.43210982	     27.36089442	     58.27959694	      0.00000000	      5.00000014
      8.90000000	      6.46132350	     -1.36370957	    173.88158849	      2.57401114	      0.88224696	      0.68893871	     15.76313118	     -5.30089022	    -14.39185275	     25.66558971	      0.44794904	     26.89311128	      3.82215849	      0.00000000	      8.75758862	      0.74417878	     -0.81262734	     14.42086589	      0.25169159	     15.96761385	    -18.44429414	      0.00000000	      0.00012246	     -0.18346867	     -0.57519421	      0.00022742	     -0.24401333	     -0.61114385	      0.00020119	     -0.44608571	     -0.61114385	      0.00013996	     -0.44608571	     -0.50329493	      0.00011372	     -0.37412930	     -0.46734530	      0.00006997	     -0.28419296	     -0.43139566	      0.00087472	     -2.07543424	     -3.19905763	      0.00000000	      0.00000000	     -0.00000000	      0.00000000	      0.00000000	     -6.18540277	     -2.03692297	    -15.25477273	     31.14324829	     50.36368994	      0.00000000	      5.00000014	    -14.68586045	     -5.34893022	      0.51239222	     27.32334121	     57.81455953	      0.00000000	      5.00000014
